<svg xmlns="http://www.w3.org/2000/svg" width="279.000000pt" height="400.000000pt" viewBox="0 0 279.000000 400.000000" preserveAspectRatio="xMidYMid meet"><metadata>
Created by potrace 1.16, written by Peter Selinger 2001-2019
</metadata><g transform="translate(0.000000,400.000000) scale(0.100000,-0.100000)" fill="#000000" stroke="none"><path d="M1286 3883 c-42 -12 -72 -36 -180 -142 -72 -70 -286 -277 -476 -461 -190 -184 -354 -348 -366 -365 -32 -46 -44 -92 -44 -165 0 -55 5 -78 28 -121 68 -131 228 -185 361 -124 54 25 109 77 582 542 96 95 180 173 186 173 5 0 34 -26 64 -57 219 -236 639 -658 673 -676 32 -17 58 -22 121 -22 70 0 87 4 133 29 94 53 142 136 142 250 0 113 -4 118 -490 622 -243 253 -460 471 -482 486 -73 50 -158 60 -252 31z"></path><path d="M475 1518 c-133 -50 -215 -192 -186 -322 7 -30 24 -72 39 -94 15 -22 224 -244 466 -495 322 -335 452 -463 490 -484 44 -24 62 -28 131 -28 67 0 89 4 127 25 43 23 295 262 822 779 196 193 216 224 216 337 0 92 -34 162 -104 215 -57 44 -104 59 -179 59 -102 0 -138 -28 -522 -402 -190 -186 -349 -338 -353 -338 -4 0 -161 159 -349 354 -261 270 -353 359 -390 377 -55 27 -160 35 -208 17z"></path></g></svg>