<svg xmlns="http://www.w3.org/2000/svg" width="365.000000pt" height="336.000000pt" viewBox="0 0 365.000000 336.000000" preserveAspectRatio="xMidYMid meet"><metadata>
Created by potrace 1.16, written by Peter Selinger 2001-2019
</metadata><g transform="translate(0.000000,336.000000) scale(0.100000,-0.100000)" fill="#000000" stroke="none"><path d="M1545 3028 c-527 -512 -531 -516 -519 -535 29 -47 49 -32 433 340 204 196 375 357 381 357 6 0 178 -161 381 -357 289 -280 376 -359 398 -361 23 -2 31 2 36 20 8 24 29 4 -537 551 -190 184 -261 247 -279 247 -18 -1 -97 -72 -294 -262z"></path><path d="M1032 948 c-6 -6 -12 -18 -12 -24 0 -7 178 -185 396 -396 330 -319 401 -383 425 -383 23 0 93 63 416 374 213 206 392 383 397 393 14 28 -16 55 -48 42 -13 -5 -190 -169 -392 -364 -202 -195 -370 -355 -374 -355 -3 0 -174 162 -379 360 -219 212 -381 361 -394 363 -12 2 -28 -3 -35 -10z"></path></g></svg>